<?xml version="1.0" encoding="UTF-8"?>
<svg id="Layer_1" data-name="Layer 1" xmlns="http://www.w3.org/2000/svg" version="1.1" viewBox="0 0 161.39 45.7">
  <defs>
    <style>
      .cls-1 {
        fill: #231f20;
        stroke-width: 0px;
      }
    </style>
  </defs>
  <path class="cls-1" d="M11.29,36.88c-2.41-1.38-4.29-3.32-5.63-5.81-1.35-2.49-2.02-5.34-2.02-8.54s.67-6.08,2.02-8.59c1.35-2.5,3.22-4.45,5.63-5.84,2.41-1.39,5.16-2.09,8.27-2.09,2.8,0,5.23.42,7.31,1.25s3.89,2.15,5.42,3.95c.48.56.83,1.13,1.05,1.71.22.59.33,1.17.33,1.76,0,.75-.19,1.45-.56,2.1-.37.65-.88,1.17-1.5,1.55-.63.38-1.32.57-2.06.57-.6,0-1.23-.12-1.88-.37s-1.26-.64-1.83-1.16c-.98-.89-1.95-1.55-2.91-1.98s-2.04-.64-3.24-.64c-1.39,0-2.63.33-3.71.99-1.08.66-1.92,1.58-2.53,2.77-.6,1.19-.9,2.52-.9,4.02s.3,2.8.9,3.97c.6,1.17,1.44,2.08,2.53,2.73s2.32.98,3.71.98c1.19,0,2.26-.22,3.22-.65.96-.43,1.94-1.09,2.93-1.96.6-.53,1.23-.92,1.89-1.17.66-.26,1.3-.38,1.91-.38.75,0,1.43.19,2.05.57.62.38,1.12.9,1.48,1.55.37.65.55,1.35.55,2.1,0,.57-.11,1.15-.33,1.72-.22.58-.57,1.15-1.05,1.7-1.55,1.8-3.37,3.13-5.46,3.99-2.09.86-4.53,1.29-7.32,1.29-3.1,0-5.86-.69-8.27-2.08Z"/>
  <path class="cls-1" d="M37.86,38.29c-.65-.37-1.16-.9-1.52-1.57-.36-.67-.54-1.45-.54-2.33V10.58c0-1.33.4-2.41,1.19-3.23.79-.82,1.84-1.23,3.14-1.23.86,0,1.62.19,2.27.56s1.16.9,1.52,1.57c.36.67.54,1.45.54,2.33v23.8c0,1.33-.4,2.41-1.19,3.23-.79.82-1.84,1.23-3.14,1.23-.86,0-1.62-.19-2.27-.56ZM43.12,18.34h14.03v8.17h-14.03v-8.17ZM57.62,38.29c-.65-.37-1.16-.9-1.52-1.57-.36-.67-.54-1.45-.54-2.33V10.58c0-1.33.4-2.41,1.19-3.23.79-.82,1.84-1.23,3.14-1.23.86,0,1.62.19,2.27.56s1.16.9,1.52,1.57c.36.67.54,1.45.54,2.33v23.8c0,1.33-.4,2.41-1.19,3.23-.79.82-1.84,1.23-3.14,1.23-.86,0-1.62-.19-2.27-.56Z"/>
  <path class="cls-1" d="M73.23,37.33c-2.11-1.08-3.74-2.63-4.89-4.63-1.15-2-1.72-4.34-1.72-7v-15.11c0-.88.18-1.65.55-2.33.37-.67.88-1.2,1.55-1.57.67-.37,1.43-.56,2.29-.56,1.29,0,2.32.41,3.1,1.23.78.82,1.16,1.9,1.16,3.23v14.32c0,1.02.23,1.94.68,2.75.45.8,1.08,1.43,1.88,1.89.8.45,1.71.68,2.73.68s1.94-.23,2.74-.68c.81-.45,1.43-1.08,1.88-1.89.45-.81.67-1.72.67-2.75v-14.32c0-1.33.39-2.41,1.17-3.23.78-.82,1.82-1.23,3.11-1.23.85,0,1.61.19,2.27.56.67.37,1.18.9,1.55,1.57.37.67.55,1.45.55,2.33v15.11c0,2.67-.58,5-1.72,7-1.15,2.01-2.78,3.55-4.89,4.63-2.11,1.08-4.55,1.62-7.33,1.62s-5.23-.54-7.33-1.62Z"/>
  <path class="cls-1" d="M99.86,38.29c-.65-.37-1.16-.9-1.52-1.57-.36-.67-.54-1.45-.54-2.33V10.98c0-1.51.4-2.69,1.2-3.56.8-.86,1.9-1.29,3.3-1.29.66,0,1.24.1,1.75.3.51.2,1.01.54,1.53,1.02s1.11,1.18,1.78,2.09l11.33,15.09h-1.08v-14.03c0-1.33.4-2.41,1.19-3.23.79-.82,1.84-1.23,3.14-1.23.86,0,1.62.19,2.27.56s1.16.9,1.52,1.57c.36.67.54,1.45.54,2.33v23.39c0,1.49-.4,2.68-1.19,3.56-.79.88-1.85,1.32-3.18,1.32-.91,0-1.72-.23-2.43-.68-.71-.45-1.51-1.25-2.4-2.39l-11.68-14.89h1.08v13.5c0,1.33-.4,2.41-1.19,3.23-.79.82-1.84,1.23-3.14,1.23-.86,0-1.62-.19-2.27-.56Z"/>
  <path class="cls-1" d="M130.27,14.7c-.66-.36-1.17-.86-1.55-1.51-.37-.65-.56-1.39-.56-2.23s.19-1.58.56-2.23c.37-.65.89-1.16,1.55-1.51.66-.36,1.41-.54,2.24-.54h19.72c.83,0,1.58.18,2.24.54s1.17.86,1.55,1.51c.37.65.56,1.39.56,2.23s-.19,1.58-.56,2.23c-.37.65-.89,1.16-1.55,1.51-.66.36-1.41.54-2.24.54h-19.72c-.83,0-1.58-.18-2.24-.54ZM140.09,38.29c-.65-.37-1.16-.9-1.51-1.57-.36-.67-.54-1.45-.54-2.33V8.83h8.65v25.56c0,1.33-.4,2.41-1.19,3.23-.79.82-1.84,1.23-3.14,1.23-.86,0-1.62-.19-2.27-.56Z"/>
</svg>