<?xml version="1.0" encoding="UTF-8"?>
<svg id="Layer_1" data-name="Layer 1" xmlns="http://www.w3.org/2000/svg" version="1.1" viewBox="0 0 212.16 49.16">
  <defs>
    <style>
      .cls-1 {
        fill: #231f20;
        stroke-width: 0px;
      }
    </style>
  </defs>
  <path class="cls-1" d="M12.29,38.41c-1.81-1.04-3.22-2.49-4.24-4.33s-1.53-3.94-1.53-6.28.51-4.43,1.53-6.28,2.44-3.29,4.24-4.34c1.8-1.04,3.84-1.56,6.11-1.56,1.74,0,3.3.26,4.7.77,1.4.51,2.53,1.21,3.4,2.11.57.6,1.06,1.27,1.47,2,.41.73.61,1.38.61,1.94,0,.32-.07.61-.22.85-.15.25-.34.44-.59.59-.25.15-.52.22-.83.22-.41,0-.75-.09-1.03-.28-.28-.19-.56-.51-.84-.98-.6-1.13-1.48-2.05-2.62-2.74-1.15-.69-2.46-1.04-3.95-1.04-1.58,0-3,.37-4.24,1.11s-2.22,1.77-2.92,3.09c-.7,1.32-1.05,2.83-1.05,4.54s.35,3.22,1.05,4.54c.7,1.32,1.67,2.34,2.92,3.09s2.66,1.11,4.24,1.11,2.86-.38,4.01-1.13c1.15-.76,2.04-1.73,2.69-2.92.27-.48.53-.81.8-1,.27-.19.62-.28,1.05-.28.29,0,.57.07.82.21.25.14.45.34.6.6.15.26.22.55.22.87,0,.52-.2,1.14-.59,1.88-.39.74-.85,1.38-1.39,1.94-.94.99-2.12,1.79-3.56,2.38-1.44.6-3.02.89-4.76.89-2.27,0-4.3-.52-6.11-1.56Z"/>
  <path class="cls-1" d="M33.41,39.54c-.28-.15-.5-.38-.66-.66-.16-.29-.24-.61-.24-.98V10.52c0-.36.08-.69.24-.97s.38-.5.66-.66c.28-.16.59-.24.95-.24s.66.08.93.24c.27.16.49.38.64.66s.23.6.23.97v27.38c0,.36-.08.69-.23.98-.15.29-.37.51-.64.66-.27.15-.58.23-.93.23s-.67-.08-.95-.23ZM50.79,39.55c-.27-.16-.49-.38-.64-.66-.15-.28-.23-.59-.23-.94v-11.65c0-2.42-.56-4.23-1.68-5.44s-2.7-1.81-4.75-1.81c-1.5,0-2.8.33-3.91.98-1.11.65-1.95,1.56-2.54,2.74s-.88,2.53-.88,4.07h-1.07l.71-6.32c.64-1.55,1.69-2.76,3.15-3.61,1.46-.85,3.2-1.28,5.23-1.28s3.6.39,5,1.16c1.4.77,2.48,1.89,3.23,3.37.76,1.48,1.13,3.27,1.13,5.37v12.43c0,.35-.08.67-.23.94-.15.28-.38.5-.66.66-.29.16-.6.24-.93.24s-.66-.08-.93-.24Z"/>
  <path class="cls-1" d="M60.33,16.05c.27.16.49.38.65.66.16.28.24.6.24.95v11.65c0,2.42.56,4.23,1.68,5.44s2.69,1.81,4.72,1.81c1.5,0,2.8-.33,3.92-.98,1.11-.65,1.96-1.56,2.55-2.74s.88-2.53.88-4.07h1.09l-.76,6.32c-.64,1.55-1.69,2.76-3.14,3.61-1.45.85-3.19,1.28-5.24,1.28-1.92,0-3.58-.38-4.99-1.15-1.41-.77-2.49-1.89-3.24-3.37s-1.13-3.26-1.13-5.36v-12.43c0-.35.08-.67.24-.95.16-.28.38-.5.66-.66.28-.16.6-.24.95-.24s.64.08.91.24ZM77.71,16.05c.29.16.51.38.66.67s.23.61.23.96v20.24c0,.36-.08.69-.23.97-.15.28-.37.5-.66.66-.29.16-.6.24-.93.24s-.66-.08-.93-.24c-.27-.16-.49-.38-.64-.66-.15-.28-.23-.6-.23-.97v-20.24c0-.36.08-.69.23-.97.15-.28.37-.5.64-.66.27-.16.58-.24.93-.24s.65.08.93.24Z"/>
  <path class="cls-1" d="M83.98,39.55c-.28-.16-.5-.38-.66-.67-.16-.29-.24-.6-.24-.96v-20.24c0-.36.08-.69.24-.97.16-.28.38-.5.66-.66.28-.16.6-.24.95-.24s.66.08.92.24.48.38.64.66c.16.28.24.6.24.97v20.24c0,.36-.08.69-.24.97-.16.28-.38.5-.64.66-.27.16-.57.24-.92.24s-.67-.08-.95-.24ZM101.36,39.55c-.27-.16-.49-.38-.64-.66-.15-.28-.23-.59-.23-.94v-11.65c0-2.42-.56-4.23-1.68-5.44-1.12-1.2-2.7-1.81-4.75-1.81-1.5,0-2.8.33-3.9.98-1.11.65-1.95,1.56-2.54,2.74s-.88,2.53-.88,4.07h-1.11l.76-6.32c.64-1.55,1.69-2.76,3.15-3.61,1.46-.85,3.2-1.28,5.23-1.28s3.6.39,5,1.16,2.48,1.89,3.23,3.37c.76,1.48,1.13,3.27,1.13,5.37v12.43c0,.35-.08.67-.23.94-.15.28-.37.5-.66.66-.29.16-.6.24-.94.24s-.66-.08-.93-.24Z"/>
  <path class="cls-1" d="M106.46,19.15c-.33-.32-.49-.73-.49-1.22,0-.31.07-.59.22-.85.15-.26.35-.46.62-.61.27-.15.56-.22.88-.22h15.1c.5,0,.92.16,1.24.48s.48.72.48,1.2c0,.32-.07.61-.22.87-.15.26-.35.46-.62.61-.27.15-.56.22-.88.22h-15.1c-.49,0-.9-.16-1.23-.48ZM115.19,39.16c-1.02-.55-1.82-1.34-2.4-2.38-.58-1.04-.87-2.28-.87-3.71V11.91c0-.36.08-.69.23-.97.15-.28.37-.5.66-.66.29-.16.61-.24.96-.24s.66.08.92.24c.27.16.48.38.64.66.16.28.24.6.24.97v20.72c0,1.19.3,2.12.91,2.79.61.67,1.44,1.01,2.49,1.01.6,0,1.16-.13,1.66-.38s1.04-.61,1.6-1.07c.29-.22.56-.39.79-.5.23-.11.47-.17.72-.17.42,0,.77.14,1.04.43.27.29.41.65.41,1.08,0,.36-.1.72-.29,1.07-.2.35-.5.71-.9,1.09-.63.57-1.42,1.05-2.37,1.43-.95.38-1.95.57-3,.57-1.26,0-2.4-.27-3.42-.82Z"/>
  <path class="cls-1" d="M131.06,39.41c-.46-.27-.83-.63-1.11-1.1s-.42-.99-.42-1.56.14-1.09.42-1.55.65-.83,1.11-1.09c.46-.27.97-.4,1.53-.4s1.07.13,1.54.4c.47.27.84.63,1.12,1.09.28.46.42.98.42,1.55s-.14,1.1-.42,1.56c-.28.47-.65.84-1.12,1.1s-.98.4-1.54.4-1.07-.13-1.53-.4Z"/>
  <path class="cls-1" d="M143.77,38.44c-1.84-1.03-3.28-2.46-4.31-4.3-1.04-1.84-1.55-3.95-1.55-6.33s.52-4.49,1.55-6.33,2.47-3.28,4.31-4.3c1.84-1.03,3.94-1.54,6.29-1.54s4.45.51,6.29,1.54c1.84,1.03,3.28,2.46,4.31,4.3,1.04,1.84,1.55,3.95,1.55,6.33s-.52,4.49-1.55,6.33c-1.04,1.84-2.47,3.28-4.31,4.3-1.84,1.03-3.94,1.54-6.29,1.54s-4.45-.51-6.29-1.54ZM154.39,35.44c1.27-.73,2.26-1.75,2.97-3.08.71-1.32,1.07-2.84,1.07-4.57s-.36-3.24-1.07-4.57c-.71-1.32-1.7-2.35-2.97-3.08-1.27-.73-2.71-1.09-4.34-1.09s-3.05.36-4.32,1.09c-1.27.73-2.27,1.75-2.98,3.08-.71,1.32-1.07,2.84-1.07,4.57s.36,3.24,1.07,4.57c.71,1.32,1.71,2.35,2.98,3.08,1.27.73,2.71,1.09,4.32,1.09s3.07-.36,4.34-1.09Z"/>
  <path class="cls-1" d="M166.19,39.55c-.28-.16-.5-.38-.66-.67-.16-.29-.24-.6-.24-.96v-20.24c0-.36.08-.69.24-.97.16-.28.38-.5.66-.66s.59-.24.94-.24.66.08.92.24.48.38.64.66c.16.28.24.6.24.97v20.24c0,.36-.08.69-.24.97-.16.28-.38.5-.64.66-.27.16-.57.24-.92.24s-.66-.08-.94-.24ZM168.48,27.07v-6.55c.32-.97.82-1.82,1.48-2.55.67-.73,1.46-1.31,2.39-1.72.93-.41,1.96-.62,3.08-.62.94,0,1.78.13,2.54.4s1.37.62,1.83,1.07c.35.35.61.7.79,1.04.17.34.26.7.26,1.08s-.07.71-.22,1c-.15.29-.35.51-.62.67s-.58.24-.95.24c-.29,0-.57-.07-.84-.22-.27-.15-.52-.34-.76-.58-.35-.35-.78-.63-1.3-.85-.52-.22-1.08-.33-1.68-.33-1.06,0-2.02.35-2.87,1.05-.85.7-1.5,1.66-1.97,2.87s-.7,2.54-.7,4h-.46Z"/>
  <path class="cls-1" d="M184.28,43.53c-1.81-.94-2.71-2.33-2.71-4.18,0-1.34.46-2.45,1.37-3.33.91-.87,2.17-1.45,3.78-1.73l1.62,1.18c-.99.31-1.74.74-2.25,1.29s-.76,1.23-.76,2.03c0,1.01.57,1.75,1.72,2.23,1.15.48,2.92.71,5.31.71s4.41-.27,5.7-.8c1.29-.53,1.94-1.3,1.94-2.31,0-.84-.35-1.48-1.06-1.92-.71-.44-1.76-.66-3.16-.66h-7.73c-.99,0-1.9-.19-2.71-.56-.81-.37-1.45-.89-1.92-1.55-.47-.66-.7-1.41-.7-2.24,0-.69.13-1.31.38-1.87.25-.56.64-1.05,1.18-1.48.53-.43,1.22-.78,2.06-1.06l1.79,1.72c-.71.29-1.22.6-1.53.92-.31.32-.46.7-.46,1.13,0,.55.22.99.67,1.33.45.34,1.05.51,1.8.51h7.66c2.46,0,4.34.47,5.63,1.42,1.29.94,1.93,2.31,1.93,4.1,0,1.37-.45,2.54-1.35,3.52-.9.97-2.22,1.71-3.96,2.23-1.74.51-3.83.77-6.3.77-3.48,0-6.13-.47-7.94-1.41ZM187.44,29.66c-1.45-.61-2.57-1.48-3.35-2.6-.78-1.13-1.18-2.45-1.18-3.96s.39-2.83,1.18-3.96c.78-1.13,1.9-1.99,3.35-2.6,1.45-.61,3.14-.91,5.07-.91s3.62.3,5.06.91c1.44.61,2.55,1.48,3.34,2.6.78,1.13,1.18,2.45,1.18,3.96s-.39,2.83-1.18,3.96c-.79,1.13-1.9,1.99-3.34,2.6-1.44.61-3.13.91-5.06.91s-3.62-.3-5.07-.91ZM195.66,26.93c.88-.36,1.56-.87,2.03-1.53.47-.66.7-1.45.7-2.36s-.23-1.7-.7-2.36c-.47-.67-1.14-1.18-2.03-1.53-.88-.36-1.92-.54-3.11-.54s-2.25.18-3.14.54c-.89.36-1.57.87-2.05,1.53-.48.67-.71,1.45-.71,2.36s.24,1.7.71,2.36c.48.67,1.16,1.18,2.05,1.53.89.36,1.94.54,3.14.54s2.23-.18,3.11-.54ZM197.42,18.06l3.78-3.11c.24-.2.48-.34.71-.44.24-.1.47-.15.69-.15.42,0,.78.15,1.09.46.31.31.46.67.46,1.07,0,.25-.07.5-.2.73-.13.24-.33.48-.6.71l-3.65,3.15-2.29-2.44Z"/>
</svg>