<?xml version="1.0" encoding="utf-8"?>
<!-- Generator: Adobe Illustrator 26.3.1, SVG Export Plug-In . SVG Version: 6.00 Build 0)  -->
<svg version="1.1" id="Layer_1" xmlns="http://www.w3.org/2000/svg" xmlns:xlink="http://www.w3.org/1999/xlink" x="0px" y="0px"
	 viewBox="0 0 800.16 800.16" style="enable-background:new 0 0 800.16 800.16;" xml:space="preserve">
<style type="text/css">
	.st0{stroke:#000000;stroke-width:0.7215;stroke-miterlimit:10;fill:'#ffffff'}
</style>
<path class="st0" d="M400.08,110.61c-156.63,0-293.38,116.43-366.54,289.47c21.69,51.29,48.96,97.6,80.67,137.38V400.08
	c35.68,0,64.61,28.93,64.61,64.61v139.5c8.84,7.43,17.9,14.43,27.15,20.97V400.08c35.68,0,64.61,28.93,64.61,64.61v197.23
	c9.23,4.06,18.61,7.7,28.1,10.89V514.93h0c35.68,0,64.61,28.93,64.61,64.61v107.85c12.12,1.43,24.39,2.16,36.79,2.16
	c156.63,0,293.38-116.43,366.54-289.47C693.46,227.04,556.71,110.61,400.08,110.61z M573.63,523.24
	c-68.02,0-123.16-55.14-123.16-123.16s55.14-123.16,123.16-123.16c68.02,0,123.16,55.14,123.16,123.16S641.64,523.24,573.63,523.24z
	"/>
</svg>
